<svg xmlns="http://www.w3.org/2000/svg" xmlns:xlink="http://www.w3.org/1999/xlink" viewBox="0 0 500 500"><defs><style>.cls-1{fill:#d6f1f2;}.cls-2{fill:#fdc94f;}.cls-3{fill:#a4a6a5;}.cls-35,.cls-4{fill:#5b5b5b;}.cls-5{fill:#727172;}.cls-6{fill:#e59f83;}.cls-7{fill:#dd9d36;}.cls-8{fill:#f7ae8b;}.cls-9{fill:#f9f9f9;}.cls-10{fill:#f27f46;}.cls-11{fill:#fcbb38;}.cls-12,.cls-15,.cls-82{fill:#fff;}.cls-12,.cls-26,.cls-35,.cls-63,.cls-75,.cls-80{opacity:0.3;}.cls-13{fill:#fcba35;}.cls-14,.cls-95{fill:#fcfcfc;}.cls-16{clip-path:url(#clip-path);}.cls-17{fill:#9eafae;}.cls-17,.cls-48,.cls-71,.cls-93{opacity:0.4;}.cls-18{fill:#f2f2f2;}.cls-19,.cls-46,.cls-49,.cls-58,.cls-59,.cls-61,.cls-63,.cls-65,.cls-69,.cls-80{fill:none;}.cls-19,.cls-59,.cls-63,.cls-69{stroke:#fff;}.cls-19,.cls-46,.cls-49,.cls-58,.cls-61,.cls-69{stroke-linecap:round;stroke-linejoin:round;}.cls-19{stroke-width:3.28px;}.cls-20{clip-path:url(#clip-path-2);}.cls-21,.cls-23{fill:#383838;}.cls-21,.cls-87{opacity:0.02;}.cls-22{fill:#f9d698;}.cls-24{clip-path:url(#clip-path-3);}.cls-25{clip-path:url(#clip-path-4);}.cls-26{fill:#e5a535;}.cls-27{fill:#fcce70;}.cls-28{fill:#b5b5b5;}.cls-29{clip-path:url(#clip-path-5);}.cls-30{fill:#9a9b9a;}.cls-31{clip-path:url(#clip-path-6);}.cls-32{opacity:0.2;}.cls-33{fill:#161616;}.cls-34{clip-path:url(#clip-path-7);}.cls-36{clip-path:url(#clip-path-8);}.cls-37{clip-path:url(#clip-path-9);}.cls-38{clip-path:url(#clip-path-10);}.cls-39{clip-path:url(#clip-path-11);}.cls-40{clip-path:url(#clip-path-12);}.cls-41{clip-path:url(#clip-path-13);}.cls-42{clip-path:url(#clip-path-14);}.cls-43{clip-path:url(#clip-path-15);}.cls-44{clip-path:url(#clip-path-16);}.cls-45{clip-path:url(#clip-path-17);}.cls-46{stroke:#eaa936;}.cls-46,.cls-49{stroke-width:3.14px;}.cls-47{clip-path:url(#clip-path-18);}.cls-48{fill:#eaa286;}.cls-49{stroke:#dd9d36;}.cls-50{clip-path:url(#clip-path-19);}.cls-51{fill:#ad3e47;}.cls-51,.cls-66{opacity:0.1;}.cls-52{fill:#efa689;}.cls-53{clip-path:url(#clip-path-20);}.cls-54{clip-path:url(#clip-path-21);}.cls-55{fill:#99594b;opacity:0.05;}.cls-56{fill:#c64747;}.cls-57{fill:#1d1d1b;}.cls-58{stroke:#f27f46;stroke-width:1.27px;}.cls-59,.cls-63,.cls-65,.cls-80{stroke-miterlimit:10;}.cls-59,.cls-69{stroke-width:0.39px;}.cls-60{clip-path:url(#clip-path-22);}.cls-61{stroke:#e2e2e2;stroke-width:0.1px;stroke-dasharray:0.2 0.2 0;}.cls-62,.cls-93{fill:#ededed;}.cls-63{stroke-width:1.96px;}.cls-64{clip-path:url(#clip-path-23);}.cls-65{stroke:#edb74c;}.cls-66{fill:#dbdbdb;}.cls-67,.cls-74,.cls-92,.cls-95{opacity:0.5;}.cls-68,.cls-92{fill:#f4f4f4;}.cls-70{clip-path:url(#clip-path-24);}.cls-72{fill:#e57645;}.cls-73{clip-path:url(#clip-path-25);}.cls-74{fill:#f4bd4e;}.cls-76{fill:#eda588;}.cls-77{clip-path:url(#clip-path-26);}.cls-78{clip-path:url(#clip-path-27);}.cls-79{clip-path:url(#clip-path-28);}.cls-80{stroke:#e8a736;}.cls-81{clip-path:url(#clip-path-29);}.cls-82{font-size:20px;font-family:OpenSans-Extrabold, OpenSans Extrabold;font-weight:800;letter-spacing:0.09em;}.cls-83{letter-spacing:0.08em;}.cls-84{letter-spacing:0.09em;}.cls-85{fill:#f9b130;}.cls-86{clip-path:url(#clip-path-30);}.cls-87{fill:#010703;}.cls-88{clip-path:url(#clip-path-31);}.cls-89{clip-path:url(#clip-path-32);}.cls-90{clip-path:url(#clip-path-33);}.cls-91{clip-path:url(#clip-path-34);}.cls-94{clip-path:url(#clip-path-35);}</style><clipPath id="clip-path"><path class="cls-1" d="M453.47,305.82c1.11,112.37-92.69,110.79-205.07,110.79S46.53,418.19,46.53,305.82,155.48,91.1,241.09,91.1C394.08,91.1,452.58,215.59,453.47,305.82Z"/></clipPath><clipPath id="clip-path-2"><path class="cls-2" d="M121.61,235.48H266.34a16.13,16.13,0,0,1,16.13,16.13V385.48a0,0,0,0,1,0,0h-177a0,0,0,0,1,0,0V251.61A16.13,16.13,0,0,1,121.61,235.48Z"/></clipPath><clipPath id="clip-path-3"><path class="cls-2" d="M282,275h64.12a17,17,0,0,1,13,6L405,335.26a17.37,17.37,0,0,1,4.1,10.95l.65,42.43a17.37,17.37,0,0,1-17.1,17.63L281,408Z"/></clipPath><clipPath id="clip-path-4"><path class="cls-11" d="M281,408H102.5A11.5,11.5,0,0,1,91,396.5h0A11.5,11.5,0,0,1,102.5,385H281Z"/></clipPath><clipPath id="clip-path-5"><path class="cls-3" d="M175.39,387a25.68,25.68,0,1,0-13.47,33.73A25.67,25.67,0,0,0,175.39,387Zm-16.66,26.29a17.59,17.59,0,1,1,9.23-23.1A17.6,17.6,0,0,1,158.73,413.29Z"/></clipPath><clipPath id="clip-path-6"><path class="cls-4" d="M181.49,384.38a32.32,32.32,0,1,0-17,42.44A32.31,32.31,0,0,0,181.49,384.38Zm-20.85,33.55a22.28,22.28,0,1,1,11.69-29.26A22.29,22.29,0,0,1,160.64,417.93Z"/></clipPath><clipPath id="clip-path-7"><path class="cls-5" d="M154.23,393.25a1.72,1.72,0,1,1-1.72-1.72A1.72,1.72,0,0,1,154.23,393.25Z"/></clipPath><clipPath id="clip-path-8"><path class="cls-5" d="M154.23,401.41a1.72,1.72,0,1,1-1.72-1.72A1.72,1.72,0,0,1,154.23,401.41Z"/></clipPath><clipPath id="clip-path-9"><path class="cls-5" d="M156.1,399.14a1.72,1.72,0,1,1,1.72-1.72A1.72,1.72,0,0,1,156.1,399.14Z"/></clipPath><clipPath id="clip-path-10"><path class="cls-5" d="M148.74,399.14a1.72,1.72,0,1,1,1.72-1.72A1.72,1.72,0,0,1,148.74,399.14Z"/></clipPath><clipPath id="clip-path-11"><path class="cls-3" d="M362.39,387a25.68,25.68,0,1,0-13.47,33.73A25.67,25.67,0,0,0,362.39,387Zm-16.66,26.29a17.59,17.59,0,1,1,9.23-23.1A17.6,17.6,0,0,1,345.73,413.29Z"/></clipPath><clipPath id="clip-path-12"><path class="cls-4" d="M368.49,384.38a32.32,32.32,0,1,0-17,42.44A32.31,32.31,0,0,0,368.49,384.38Zm-20.85,33.55a22.28,22.28,0,1,1,11.69-29.26A22.29,22.29,0,0,1,347.64,417.93Z"/></clipPath><clipPath id="clip-path-13"><path class="cls-5" d="M341.23,393.25a1.72,1.72,0,1,1-1.72-1.72A1.72,1.72,0,0,1,341.23,393.25Z"/></clipPath><clipPath id="clip-path-14"><path class="cls-5" d="M341.23,401.41a1.72,1.72,0,1,1-1.72-1.72A1.72,1.72,0,0,1,341.23,401.41Z"/></clipPath><clipPath id="clip-path-15"><path class="cls-5" d="M343.1,399.14a1.72,1.72,0,1,1,1.72-1.72A1.72,1.72,0,0,1,343.1,399.14Z"/></clipPath><clipPath id="clip-path-16"><path class="cls-5" d="M335.74,399.14a1.72,1.72,0,1,1,1.72-1.72A1.72,1.72,0,0,1,335.74,399.14Z"/></clipPath><clipPath id="clip-path-17"><path class="cls-1" d="M295.55,339.33H393l-44-52-53.53.57a7.22,7.22,0,0,0-7.14,7.22v37A7.21,7.21,0,0,0,295.55,339.33Z"/></clipPath><clipPath id="clip-path-18"><path class="cls-6" d="M327.8,325.17c.14,2.5,2.13,4.76,3.31,7l4.36,7.39c2,4.16,4.41,4,8.38,3.13l13.7-4.17,1.64-3.34.46-.27c-18.32,7-21-.62-22.13-3.58-.2-.54-.69-1.41-.85-2h0a19.64,19.64,0,0,1-1.41-2.83c-.77-2.3-1.92-5.69-5.34-5.82C327.88,320.6,327.65,322.4,327.8,325.17Z"/></clipPath><clipPath id="clip-path-19"><path class="cls-7" d="M320.34,349.54c-1.3-.29-1-2.49-.94-3.82.11-4.47-1.7-14.07,2.35-21,.75-1.28,2.74-4.68,4.64-5.34,1.11-.39,1.49-3,2-4.66l6.81,3.47s-1.76,1.18-.26,4.32c1.7,3.56.38,12.81.38,12.81s1.89,9.52.14,15.46c-.28,1-1.29,2.21-2.26,2Z"/></clipPath><clipPath id="clip-path-20"><path class="cls-8" d="M328.53,327.54c.14,2.5,1.1,3.47,2.27,5.68l4.36,7.38c2,4.16,4.41,4,8.39,3.14l13.7-4.17,1.64-3.35.46-.27c-13.09,2.89-16.7,3.75-18.35,1.05-3.48-5.71-3.33-4.28-3.5-4.83l-1.1-5.3c-.66-1.46.5,1.52,0,0-.77-2.31-1.53-3-4.94-3.17C329.42,323.62,328.38,324.77,328.53,327.54Z"/></clipPath><clipPath id="clip-path-21"><path class="cls-8" d="M340.7,294.06a10.09,10.09,0,0,1,2.43,6.45c.3,16.18,0,21.93-9.62,18.14-6.95-2.75-11.84-4.87-13.41-16.78-.36-2.71.86-9.94,8.49-11.14C335.07,289.7,338.69,291.75,340.7,294.06Z"/></clipPath><clipPath id="clip-path-22"><path class="cls-9" d="M335,312s8.77-.75,8.87-1.73,2.12,3.61.15,7.44c-.37.72-1.93,1.93-2.74,1.82l-5.22-1.69Z"/></clipPath><clipPath id="clip-path-23"><path class="cls-2" d="M330.81,334.84a1.94,1.94,0,0,1-2.3-.81c-1.48-2.86-4.57-10.38,1.57-12.07s7.38,6.09,8.25,9.12a1.7,1.7,0,0,1-1.32,2Z"/></clipPath><clipPath id="clip-path-24"><path class="cls-10" d="M320,299.92s-.63,8,2.67,12.46a.9.9,0,0,0,1.32.15,8.47,8.47,0,0,0,2.75-4.22,5.24,5.24,0,0,1,1.34-2.7,2.13,2.13,0,0,1,1-.64c1.18-.28,3.15.08,5.1-.1s7.27-1.38,7.76-4.13S320,299.92,320,299.92Z"/></clipPath><clipPath id="clip-path-25"><path class="cls-2" d="M347.38,297.28a14.26,14.26,0,0,0-4.26-.87c-.93-2.87-3.48-6.65-10.49-7.29s-13.23,3.66-13.71,10.63c0,.18,0,1.42,0,1.42l5.49-.32a49,49,0,0,1,15.94,1.69,26.81,26.81,0,0,0,5.65,1A3.23,3.23,0,0,0,347.38,297.28Z"/></clipPath><clipPath id="clip-path-26"><path class="cls-11" d="M374,407l34.8-.45a10.08,10.08,0,0,0,10.05-10.05h0a10.08,10.08,0,0,0-10.05-10.05l-32.92.3S378.5,402.88,374,407Z"/></clipPath><clipPath id="clip-path-27"><rect class="cls-12" x="124.6" y="254.09" width="137.99" height="85.5"/></clipPath><clipPath id="clip-path-28"><rect class="cls-11" x="144.98" y="287" width="43.54" height="43.54"/></clipPath><clipPath id="clip-path-29"><rect class="cls-11" x="198.32" y="287" width="43.54" height="43.54"/></clipPath><clipPath id="clip-path-30"><path class="cls-13" d="M263.53,340.89a1.25,1.25,0,1,1-1.25-1.26A1.25,1.25,0,0,1,263.53,340.89Z"/></clipPath><clipPath id="clip-path-31"><circle class="cls-13" cx="262" cy="255.87" r="1.25"/></clipPath><clipPath id="clip-path-32"><circle class="cls-13" cx="125.03" cy="340.89" r="1.25"/></clipPath><clipPath id="clip-path-33"><circle class="cls-13" cx="124.75" cy="255.87" r="1.25"/></clipPath><clipPath id="clip-path-34"><path class="cls-14" d="M294,178.17h60a12.24,12.24,0,0,0,12.32-12V166a27.67,27.67,0,0,0-16.69-25.4,22.66,22.66,0,0,0-45.29.5c-.67-.06-1.34-.1-2-.1A21.33,21.33,0,0,0,283,171.26,12.17,12.17,0,0,0,294,178.17Z"/></clipPath><clipPath id="clip-path-35"><path class="cls-15" d="M129.32,193.49c-.1-.17-.22-.32-.32-.49-.09.17-.2.32-.3.49H89.23a14.84,14.84,0,0,1-14.92-14.58v-.16a29.16,29.16,0,0,1,10.22-22.19c0-.16,0-.33,0-.5a29.77,29.77,0,0,1,59.54,0c0,.13,0,.26,0,.39a24.39,24.39,0,0,1,30,21.8c0,.1,0,.21,0,.31a14.12,14.12,0,0,1-14.14,14.93Z"/></clipPath></defs><g id="BACKGROUND"><rect class="cls-15" width="500" height="500"/></g><g id="OBJECTS"><g id="shadow"><path class="cls-1" d="M453.47,305.82c1.11,112.37-92.69,110.79-205.07,110.79S46.53,418.19,46.53,305.82,155.48,91.1,241.09,91.1C394.08,91.1,452.58,215.59,453.47,305.82Z"/><g class="cls-16"><path class="cls-12" d="M326.16,69.43C393,118,423.6,206.27,423.6,286.22c0,119.37-97.44,117.69-215.56,117.69-57,0-108.36.38-146.29-12.61,36.83,34,104.42,33.32,182.55,33.32,118.13,0,215.56,1.68,215.56-117.69C459.86,213.71,418.24,109.24,326.16,69.43Z"/><path class="cls-17" d="M409.88,228.38v63.56H377.45V232.63H372V222.38h-3.68V210h-4.74v-5.66L356.25,196l-6.76,8.42V210h-4.73v12.34h-3.69v10.25h-5.45v25.05h-36.3V232.63l-41.84,28.24v61H231.1V207.35h-9.63V197.27H207.13v-18h-4.66V131.7a1,1,0,0,0-2,0v47.57h-4.66v18H181.47v10.08H172.6v84.59H158.32V232.63H116.48v25.05H104.3V234.63H95.05V224.55h-10v-18h-20v18h-10v10.08H45.8V423.34H409.88v11h50v-206Z"/></g><path class="cls-18" d="M420.89,414c0,11-75.44,19.91-168.5,19.91S83.89,425,83.89,414s67.83-11.92,160.89-11.92S420.89,403,420.89,414Z"/></g><g id="elements"><line class="cls-19" x1="59.95" y1="336.98" x2="154.21" y2="336.98"/><line class="cls-19" x1="72.09" y1="355.91" x2="154.21" y2="355.91"/><line class="cls-19" x1="91.61" y1="374.84" x2="154.21" y2="374.84"/><path class="cls-2" d="M121.61,235.48H266.34a16.13,16.13,0,0,1,16.13,16.13V385.48a0,0,0,0,1,0,0h-177a0,0,0,0,1,0,0V251.61A16.13,16.13,0,0,1,121.61,235.48Z"/><g class="cls-20"><path class="cls-21" d="M105,234s40.82,153.11,152,160L76,395Z"/><path class="cls-22" d="M107,391.5h0a7,7,0,0,1-7-7v-31a7,7,0,0,1,7-7h0a7,7,0,0,1,7,7v31A7,7,0,0,1,107,391.5Z"/><circle class="cls-23" cx="152" cy="395.33" r="37"/></g><path class="cls-2" d="M282,275h64.12a17,17,0,0,1,13,6L405,335.26a17.37,17.37,0,0,1,4.1,10.95l.65,42.43a17.37,17.37,0,0,1-17.1,17.63L281,408Z"/><g class="cls-24"><path class="cls-22" d="M422.33,389.33h-26a6.68,6.68,0,0,1-6.66-6.66h0a6.69,6.69,0,0,1,6.66-6.67h26a6.69,6.69,0,0,1,6.67,6.67h0A6.69,6.69,0,0,1,422.33,389.33Z"/><circle class="cls-23" cx="339" cy="395.33" r="37"/></g><path class="cls-11" d="M281,408H102.5A11.5,11.5,0,0,1,91,396.5h0A11.5,11.5,0,0,1,102.5,385H281Z"/><g class="cls-25"><rect class="cls-26" x="90" y="403" width="190" height="8"/><circle class="cls-23" cx="152" cy="395.33" r="37"/></g><path class="cls-27" d="M282.47,235.48"/><path class="cls-28" d="M170.88,392.89l-2.34-5.53-7.73,3.27a3,3,0,0,1-4.17-3.07l.81-8.35-6-.59-.64,6.54a3,3,0,0,1-5,1.95l-4.88-4.41-4,4.46,6.73,6.07a3,3,0,0,1-.85,5l-8.34,3.53,2.33,5.52,7.74-3.27a3,3,0,0,1,4.17,3.07l-.82,8.36,6,.58.64-6.54a3,3,0,0,1,5-1.94l4.88,4.4,4-4.45-6.72-6.07a3,3,0,0,1,.84-5Z"/><path class="cls-3" d="M175.39,387a25.68,25.68,0,1,0-13.47,33.73A25.67,25.67,0,0,0,175.39,387Zm-16.66,26.29a17.59,17.59,0,1,1,9.23-23.1A17.6,17.6,0,0,1,158.73,413.29Z"/><g class="cls-29"><path class="cls-30" d="M173.89,388.68a22.79,22.79,0,0,0-7.81-9.64,22.82,22.82,0,0,1-28.86,35.21,22.83,22.83,0,0,0,36.67-25.57Z"/></g><path class="cls-4" d="M181.49,384.38a32.32,32.32,0,1,0-17,42.44A32.31,32.31,0,0,0,181.49,384.38Zm-20.85,33.55a22.28,22.28,0,1,1,11.69-29.26A22.29,22.29,0,0,1,160.64,417.93Z"/><g class="cls-31"><g class="cls-32"><path class="cls-33" d="M182.66,385.18A32.32,32.32,0,0,0,174,373.41,32.32,32.32,0,0,1,128.46,419a32.32,32.32,0,0,0,54.2-33.82Z"/></g></g><path class="cls-5" d="M154.23,393.25a1.72,1.72,0,1,1-1.72-1.72A1.72,1.72,0,0,1,154.23,393.25Z"/><g class="cls-34"><path class="cls-35" d="M153.75,391.82a2,2,0,0,1,.2.83,1.94,1.94,0,0,1-3.4,1.29,1.94,1.94,0,1,0,3.2-2.12Z"/></g><path class="cls-5" d="M154.23,401.41a1.72,1.72,0,1,1-1.72-1.72A1.72,1.72,0,0,1,154.23,401.41Z"/><g class="cls-36"><path class="cls-35" d="M153.75,400a1.92,1.92,0,0,1,.2.83,1.95,1.95,0,0,1-3.4,1.29,1.94,1.94,0,0,0,3.7-.83A1.9,1.9,0,0,0,153.75,400Z"/></g><path class="cls-5" d="M156.1,399.14a1.72,1.72,0,1,1,1.72-1.72A1.72,1.72,0,0,1,156.1,399.14Z"/><g class="cls-37"><path class="cls-35" d="M157.53,398.67a1.94,1.94,0,0,1-2.78-1.76,1.92,1.92,0,0,1,.66-1.44,1.94,1.94,0,0,0,.83,3.7A2,2,0,0,0,157.53,398.67Z"/></g><path class="cls-5" d="M148.74,399.14a1.72,1.72,0,1,1,1.72-1.72A1.72,1.72,0,0,1,148.74,399.14Z"/><g class="cls-38"><path class="cls-35" d="M150.17,398.67a1.94,1.94,0,0,1-2.78-1.76,1.92,1.92,0,0,1,.66-1.44,1.94,1.94,0,0,0,.83,3.7A2,2,0,0,0,150.17,398.67Z"/></g><path class="cls-28" d="M357.88,392.89l-2.34-5.53-7.73,3.27a3,3,0,0,1-4.17-3.07l.81-8.35-6-.59-.64,6.54a3,3,0,0,1-5,1.95l-4.88-4.41-4,4.46,6.73,6.07a3,3,0,0,1-.85,5l-8.34,3.53,2.33,5.52,7.74-3.27a3,3,0,0,1,4.17,3.07l-.82,8.36,6,.58.64-6.54a3,3,0,0,1,5-1.94l4.88,4.4,4-4.45-6.72-6.07a3,3,0,0,1,.84-5Z"/><path class="cls-3" d="M362.39,387a25.68,25.68,0,1,0-13.47,33.73A25.67,25.67,0,0,0,362.39,387Zm-16.66,26.29a17.59,17.59,0,1,1,9.23-23.1A17.6,17.6,0,0,1,345.73,413.29Z"/><g class="cls-39"><path class="cls-30" d="M360.89,388.68a22.79,22.79,0,0,0-7.81-9.64,22.82,22.82,0,0,1-28.86,35.21,22.83,22.83,0,0,0,36.67-25.57Z"/></g><path class="cls-4" d="M368.49,384.38a32.32,32.32,0,1,0-17,42.44A32.31,32.31,0,0,0,368.49,384.38Zm-20.85,33.55a22.28,22.28,0,1,1,11.69-29.26A22.29,22.29,0,0,1,347.64,417.93Z"/><g class="cls-40"><g class="cls-32"><path class="cls-33" d="M369.66,385.18A32.32,32.32,0,0,0,361,373.41,32.32,32.32,0,0,1,315.46,419a32.32,32.32,0,0,0,54.2-33.82Z"/></g></g><path class="cls-5" d="M341.23,393.25a1.72,1.72,0,1,1-1.72-1.72A1.72,1.72,0,0,1,341.23,393.25Z"/><g class="cls-41"><path class="cls-35" d="M340.75,391.82a2,2,0,0,1,.2.83,1.94,1.94,0,0,1-3.4,1.29,1.94,1.94,0,1,0,3.2-2.12Z"/></g><path class="cls-5" d="M341.23,401.41a1.72,1.72,0,1,1-1.72-1.72A1.72,1.72,0,0,1,341.23,401.41Z"/><g class="cls-42"><path class="cls-35" d="M340.75,400a1.92,1.92,0,0,1,.2.83,1.95,1.95,0,0,1-3.4,1.29,1.94,1.94,0,0,0,3.7-.83A1.9,1.9,0,0,0,340.75,400Z"/></g><path class="cls-5" d="M343.1,399.14a1.72,1.72,0,1,1,1.72-1.72A1.72,1.72,0,0,1,343.1,399.14Z"/><g class="cls-43"><path class="cls-35" d="M344.53,398.67a1.94,1.94,0,0,1-2.78-1.76,1.92,1.92,0,0,1,.66-1.44,1.94,1.94,0,0,0,.83,3.7A2,2,0,0,0,344.53,398.67Z"/></g><path class="cls-5" d="M335.74,399.14a1.72,1.72,0,1,1,1.72-1.72A1.72,1.72,0,0,1,335.74,399.14Z"/><g class="cls-44"><path class="cls-35" d="M337.17,398.67a1.94,1.94,0,0,1-2.78-1.76,1.92,1.92,0,0,1,.66-1.44,1.94,1.94,0,0,0,.83,3.7A2,2,0,0,0,337.17,398.67Z"/></g><path class="cls-1" d="M295.55,339.33H393l-44-52-53.53.57a7.22,7.22,0,0,0-7.14,7.22v37A7.21,7.21,0,0,0,295.55,339.33Z"/><g class="cls-45"><path class="cls-46" d="M361.18,333.44s7.27,2,7.07,8.44"/><g id="elements-2" data-name="elements"><g id="element"><path class="cls-6" d="M327.8,325.17c.14,2.5,2.13,4.76,3.31,7l4.36,7.39c2,4.16,4.41,4,8.38,3.13l13.7-4.17,1.64-3.34.46-.27c-18.32,7-21-.62-22.13-3.58-.2-.54-.69-1.41-.85-2h0a19.64,19.64,0,0,1-1.41-2.83c-.77-2.3-1.92-5.69-5.34-5.82C327.88,320.6,327.65,322.4,327.8,325.17Z"/><g class="cls-47"><path class="cls-48" d="M359.55,338c-18.82,5.71-20.21,6.52-26.26-4.61-1.83-3.35-4.08-8.94-3.37-12.69h0l-4.36,2.47,9.8,16.79c1.27,4.32,4.79,4.8,7.36,3.3l17-4.82-.2-.44Z"/></g></g><line class="cls-49" x1="362.56" y1="329.9" x2="358.55" y2="340.49"/><path class="cls-7" d="M320.34,349.54c-1.3-.29-1-2.49-.94-3.82.11-4.47-1.7-14.07,2.35-21,.75-1.28,2.74-4.68,4.64-5.34,1.11-.39,1.49-3,2-4.66l6.81,3.47s-1.76,1.18-.26,4.32c1.7,3.56.38,12.81.38,12.81s1.89,9.52.14,15.46c-.28,1-1.29,2.21-2.26,2Z"/><g class="cls-50"><path class="cls-8" d="M325.17,319.33c5.25-.5,5.08.76,11.47,3.5.91.4,2.9-2.56,2.9-2.56l-6.44-7-7.23-.95Z"/><path class="cls-51" d="M327.3,327.62s4,13,7.53,16.81c3.83,4.15,13.48-1.29,13.48-1.29l-10.61-2.47Z"/><path class="cls-52" d="M343.55,300c-1.16,19.77-1.42,22.16-10.15,19.41s-13.18-7.31-15.26-19.13c-2-11.25,3.1-11,10.81-11.52C342.05,287.91,343.85,294.78,343.55,300Z"/><path class="cls-51" d="M326.39,319.41s-5.43.67-5.94,20.57l-1.77,11.51-2.94-2.55S316.4,319.84,326.39,319.41Z"/></g><g id="element-2" data-name="element"><path class="cls-8" d="M328.53,327.54c.14,2.5,1.1,3.47,2.27,5.68l4.36,7.38c2,4.16,4.41,4,8.39,3.14l13.7-4.17,1.64-3.35.46-.27c-13.09,2.89-16.7,3.75-18.35,1.05-3.48-5.71-3.33-4.28-3.5-4.83l-1.1-5.3c-.66-1.46.5,1.52,0,0-.77-2.31-1.53-3-4.94-3.17C329.42,323.62,328.38,324.77,328.53,327.54Z"/><g class="cls-53"><path class="cls-48" d="M359.25,339.06c-18.82,5.71-20.21,6.52-26.26-4.6-1.83-3.36-4.08-8.94-3.37-12.7h0l-4.37,2.47,9.8,16.79c1.28,4.33,4.8,4.81,7.37,3.31l17-4.82-.19-.45Z"/></g></g><path class="cls-8" d="M340.7,294.06a10.09,10.09,0,0,1,2.43,6.45c.3,16.18,0,21.93-9.62,18.14-6.95-2.75-11.84-4.87-13.41-16.78-.36-2.71.86-9.94,8.49-11.14C335.07,289.7,338.69,291.75,340.7,294.06Z"/><g class="cls-54"><path class="cls-55" d="M351.18,276.11s9,47.17-16.56,49.16c0,0,18.59,3.13,21.73-7.48S365.86,274.46,351.18,276.11Z"/></g><path class="cls-56" d="M326.08,326.78"/><path class="cls-8" d="M342.54,308.06s2.31,4.27,1.93,4.79c-.49.68-3,.8-3,.8"/><path class="cls-57" d="M341.07,308.91c-.05,1.06-.74,1.89-1.55,1.84a1.74,1.74,0,0,1-1.36-2c0-1.06.75-1.89,1.55-1.85A1.74,1.74,0,0,1,341.07,308.91Z"/><path class="cls-8" d="M327.64,309.64a2.93,2.93,0,1,1,2.27,3.66A3.07,3.07,0,0,1,327.64,309.64Z"/><path class="cls-58" d="M337.17,305.65a3.52,3.52,0,0,1,3.58-.77"/><path class="cls-59" d="M336,312.42"/><path class="cls-59" d="M336.23,317.6h0a27,27,0,0,1-10.49-4"/><path class="cls-9" d="M335,312s8.77-.75,8.87-1.73,2.12,3.61.15,7.44c-.37.72-1.93,1.93-2.74,1.82l-5.22-1.69Z"/><g class="cls-60"><path class="cls-61" d="M335.36,312.33s9.42-1,9.51-1.88,2,3.25.28,6.68c-.33.64-2.1,2.47-2.82,2.37l-6.1-1.9Z"/><path class="cls-62" d="M335.67,312.63s9.77-1.12,9.84-2,2.16,3.68.25,7c-.36.63-1.92,1.91-2.77,1.82l-6.5-2Z"/><path class="cls-63" d="M334.81,314.27s8.15-.07,11.89-1.85"/><path class="cls-63" d="M335.07,317.36s8.15-.08,11.9-1.85"/></g><path class="cls-8" d="M356.12,339.82a6,6,0,0,1,4.4,0,.48.48,0,0,0,.7-.29A.62.62,0,0,0,361,339c-.66-.63-3.59-1.07-3.59-1.07"/><path class="cls-8" d="M356.72,338.3s3,0,4,.57a.47.47,0,0,0,.7-.29.63.63,0,0,0-.24-.54c-.66-.63-3.81-1-3.81-1"/><path class="cls-8" d="M357.74,337.67a10.93,10.93,0,0,1,3.32.25.47.47,0,0,0,.64-.4.58.58,0,0,0-.33-.49c-.75-.51-3.71-.44-3.71-.44"/><path class="cls-8" d="M357.77,337.36a10.72,10.72,0,0,1,3.29-.47.47.47,0,0,0,.54-.53.59.59,0,0,0-.43-.41c-.85-.33-3.72.37-3.72.37"/><path class="cls-8" d="M356.19,336.56a5,5,0,0,0,2-1.36c.58-.84,1.24.7.24,1.11"/><path class="cls-2" d="M330.81,334.84a1.94,1.94,0,0,1-2.3-.81c-1.48-2.86-4.57-10.38,1.57-12.07s7.38,6.09,8.25,9.12a1.7,1.7,0,0,1-1.32,2Z"/><g class="cls-64"><line class="cls-65" x1="324.33" y1="334.5" x2="341.33" y2="329.67"/><line class="cls-65" x1="324.33" y1="332.5" x2="341.33" y2="327.67"/></g><path class="cls-66" d="M112.12,195.59c0-.43,0-.86.08-1.3a24.58,24.58,0,0,1,18.54-21.68A24.12,24.12,0,0,1,160.16,154a24.11,24.11,0,0,0-38.07,14.47,24.59,24.59,0,0,0-18.54,21.68c0,.44-.07.87-.08,1.31-.4,10.82,7.27,19.95,17.43,22.36A22,22,0,0,1,112.12,195.59Z"/><g class="cls-67"><path class="cls-68" d="M181.35,217.22c11.37,0,21.14-8.65,21.91-20,0-.4,0-.8.05-1.21a24.73,24.73,0,0,0-13.88-22.57,24.66,24.66,0,0,1,8.42,18.93c0,.41,0,.81-.06,1.21-.76,11.35-5.57,21.51-35.92,24.55"/></g></g><path class="cls-8" d="M326.77,313.9a2.85,2.85,0,1,1,0-5.69"/><path class="cls-69" d="M324.85,308.7"/><path class="cls-69" d="M336,312.42"/><path class="cls-69" d="M336,312.42"/><path class="cls-10" d="M320,299.92s-.63,8,2.67,12.46a.9.9,0,0,0,1.32.15,8.47,8.47,0,0,0,2.75-4.22,5.24,5.24,0,0,1,1.34-2.7,2.13,2.13,0,0,1,1-.64c1.18-.28,3.15.08,5.1-.1s7.27-1.38,7.76-4.13S320,299.92,320,299.92Z"/><g class="cls-70"><g class="cls-71"><path class="cls-72" d="M322.29,300.26l-2.29.14s-1,8.33,2.33,12.81a.9.9,0,0,0,1.33.15,11.89,11.89,0,0,0,.93-.94C321.87,308.59,322.15,302.11,322.29,300.26Z"/></g></g><path class="cls-2" d="M347.38,297.28a14.26,14.26,0,0,0-4.26-.87c-.93-2.87-3.48-6.65-10.49-7.29s-13.23,3.66-13.71,10.63c0,.18,0,1.42,0,1.42l5.49-.32a49,49,0,0,1,15.94,1.69,26.81,26.81,0,0,0,5.65,1A3.23,3.23,0,0,0,347.38,297.28Z"/><g class="cls-73"><path class="cls-74" d="M320.5,300.61a12.51,12.51,0,0,1,12.23-11.54L332,289a12.56,12.56,0,0,0-13.71,11.5l0,.56,2.24-.13C320.49,300.81,320.49,300.71,320.5,300.61Z"/><g class="cls-75"><path class="cls-14" d="M344.1,296.48c-.93-2.87-3.48-6.66-10.49-7.3a12.8,12.8,0,0,0-3.34.14,11.69,11.69,0,0,1,1.77,0c7,.64,9.56,4.42,10.49,7.29"/></g></g><path class="cls-76" d="M326.85,314.06a3.25,3.25,0,0,1-3.26-2.88,2.85,2.85,0,0,1,2.85-2.84"/><path class="cls-8" d="M326.9,308.21a2.85,2.85,0,1,0,0,5.69"/><path class="cls-69" d="M336,312.42l-9.16-3.33a3,3,0,0,0-2.32,0"/><path class="cls-23" d="M314.17,355h0a6.51,6.51,0,0,1-6.5-6.5v-27a6.51,6.51,0,0,1,6.5-6.5h0a6.52,6.52,0,0,1,6.5,6.5v27A6.52,6.52,0,0,1,314.17,355Z"/></g><path class="cls-11" d="M377.93,346.94c7.86,0,14.29-3.47,14.29-7.7v-8c0-4.23-6.43-7.69-14.29-7.69Z"/><path class="cls-11" d="M374,407l34.8-.45a10.08,10.08,0,0,0,10.05-10.05h0a10.08,10.08,0,0,0-10.05-10.05l-32.92.3S378.5,402.88,374,407Z"/><g class="cls-77"><rect class="cls-26" x="301" y="402" width="190" height="8"/></g><rect class="cls-12" x="124.6" y="254.09" width="137.99" height="85.5"/><g class="cls-78"><rect class="cls-11" x="144.98" y="287" width="43.54" height="43.54"/><g class="cls-79"><line class="cls-80" x1="166.75" y1="306" x2="166.75" y2="335.75"/><rect class="cls-12" x="159.42" y="285" width="14.67" height="20.67"/></g><rect class="cls-11" x="198.32" y="287" width="43.54" height="43.54"/><g class="cls-81"><line class="cls-80" x1="220.08" y1="306" x2="220.08" y2="335.75"/><rect class="cls-12" x="212.75" y="285" width="14.67" height="20.67"/></g></g><text class="cls-82" transform="translate(139 282)">DELIVE<tspan class="cls-83" x="69.18" y="0">R</tspan><tspan class="cls-84" x="81.52" y="0">Y</tspan></text><rect class="cls-13" x="121.13" y="254.38" width="6.5" height="88.5"/><rect class="cls-13" x="259.08" y="254" width="6.5" height="88.5"/><rect class="cls-85" x="121.1" y="252" width="144.27" height="7"/><rect class="cls-85" x="121.13" y="337.5" width="144.51" height="7"/><path class="cls-13" d="M263.53,340.89a1.25,1.25,0,1,1-1.25-1.26A1.25,1.25,0,0,1,263.53,340.89Z"/><g class="cls-86"><path class="cls-87" d="M262.9,339.81a1.19,1.19,0,0,1,.27.76,1.25,1.25,0,0,1-1.25,1.25,1.35,1.35,0,0,1-.63-.17,1.28,1.28,0,0,0,1,.49,1.25,1.25,0,0,0,1.25-1.25A1.22,1.22,0,0,0,262.9,339.81Z"/></g><circle class="cls-13" cx="262" cy="255.87" r="1.25"/><g class="cls-88"><path class="cls-87" d="M262.62,254.8a1.19,1.19,0,0,1,.27.76,1.24,1.24,0,0,1-1.88,1.07,1.24,1.24,0,0,0,2.24-.76A1.22,1.22,0,0,0,262.62,254.8Z"/></g><circle class="cls-13" cx="125.03" cy="340.89" r="1.25"/><g class="cls-89"><path class="cls-87" d="M125.65,339.81a1.19,1.19,0,0,1,.27.76,1.25,1.25,0,0,1-1.25,1.25,1.35,1.35,0,0,1-.63-.17,1.28,1.28,0,0,0,1,.49,1.25,1.25,0,0,0,1.25-1.25A1.22,1.22,0,0,0,125.65,339.81Z"/></g><circle class="cls-13" cx="124.75" cy="255.87" r="1.25"/><g class="cls-90"><path class="cls-87" d="M125.37,254.8a1.19,1.19,0,0,1,.27.76,1.25,1.25,0,0,1-1.26,1.25,1.21,1.21,0,0,1-.62-.18,1.24,1.24,0,0,0,2.24-.76A1.22,1.22,0,0,0,125.37,254.8Z"/></g></g><g id="cloud"><path class="cls-14" d="M294,178.17h60a12.24,12.24,0,0,0,12.32-12V166a27.67,27.67,0,0,0-16.69-25.4,22.66,22.66,0,0,0-45.29.5c-.67-.06-1.34-.1-2-.1A21.33,21.33,0,0,0,283,171.26,12.17,12.17,0,0,0,294,178.17Z"/><g class="cls-91"><path class="cls-92" d="M349.64,140.6A22.66,22.66,0,0,0,320,120.1a22.66,22.66,0,0,1,20.61,21.5A27.67,27.67,0,0,1,357.33,167v.13a12.11,12.11,0,0,1-7.44,11H354a12.24,12.24,0,0,0,12.32-12V166A27.67,27.67,0,0,0,349.64,140.6Z"/><path class="cls-93" d="M303.33,190.49a27.7,27.7,0,0,0,7.22-1c-13.77-.84-24.67-11.64-24.67-24.85,0-11.39,8.12-21,19.19-24-.57,0-1.15-.06-1.74-.06-14.59,0-26.41,11.16-26.41,24.91S288.74,190.49,303.33,190.49Z"/></g></g><g id="cloud-2" data-name="cloud"><path class="cls-15" d="M129.32,193.49c-.1-.17-.22-.32-.32-.49-.09.17-.2.32-.3.49H89.23a14.84,14.84,0,0,1-14.92-14.58v-.16a29.16,29.16,0,0,1,10.22-22.19c0-.16,0-.33,0-.5a29.77,29.77,0,0,1,59.54,0c0,.13,0,.26,0,.39a24.39,24.39,0,0,1,30,21.8c0,.1,0,.21,0,.31a14.12,14.12,0,0,1-14.14,14.93Z"/><g class="cls-94"><g class="cls-71"><path class="cls-68" d="M81,159.77c0-.17,0-.35,0-.52a31.1,31.1,0,0,1,39.73-29.79q-.6,0-1.2,0a31.06,31.06,0,0,0-31.12,31c0,.17,0,.35,0,.52a30.29,30.29,0,0,0-10.68,23.1v.17a15.29,15.29,0,0,0,9.6,14H85.86A15.48,15.48,0,0,1,70.27,183v-.17A30.27,30.27,0,0,1,81,159.77Z"/></g><path class="cls-95" d="M170.66,183.74l0-.33a25.19,25.19,0,0,0-31-22.51c0-.13,0-.27,0-.4a30.79,30.79,0,0,0-40-29.35,29.77,29.77,0,0,1,46.07,24.91c0,.13,0,.26,0,.39a24.39,24.39,0,0,1,30,21.8c0,.1,0,.21,0,.31A14,14,0,0,1,169,191.42,14.14,14.14,0,0,0,170.66,183.74Z"/></g></g></g></svg>